<svg class="w-auto h-[38px] lg:overflow-visible" viewBox="0 0 32 43" fill="none" xmlns="http://www.w3.org/2000/svg"><path d="M30.7878 16.3838C30.7878 22.0969 31.3788 26.7718 31.3788 28.9405C31.3788 31.1093 31.1369 33.3185 28.9809 36.1658C26.825 39.0131 22.4734 40.6129 21.123 41.0921C19.7726 41.5712 17.2373 42.2772 16 43C14.7627 42.2772 12.2278 41.5703 10.8774 41.0921C9.52704 40.6138 5.17547 39.0127 3.01909 36.1658C0.86272 33.3189 0.621227 31.1098 0.621227 28.9405C0.621227 26.7713 1.21216 22.0969 1.21216 16.3838C1.21216 10.6707 0 5.18539 0 5.18539L16 0L32 5.18539C32 5.18539 30.7878 10.6711 30.7878 16.3838Z" fill="#6BBBAE" class="stroke-none"/><path d="M11.4096 8.34501C11.2178 8.34549 11.0264 8.36245 10.8374 8.39572C11.3537 7.60848 12.3436 7.07563 13.4828 7.07563C13.5869 7.07563 13.6888 7.08165 13.79 7.09067L12.4848 8.52248C12.1382 8.40536 11.7751 8.34543 11.4096 8.34501ZM9.72424 8.79707L8.2211 7.14739V10.2478C8.62088 9.62814 9.13502 9.12839 9.72424 8.79707ZM23.771 10.2461V7.14739L22.2678 8.79707C22.857 9.12839 23.3716 9.62814 23.771 10.2461ZM20.5825 8.34501C20.7751 8.34538 20.9674 8.36234 21.1572 8.39572C20.6409 7.60848 19.6506 7.07563 18.5119 7.07563C18.4082 7.07563 18.3062 7.08165 18.2055 7.09067L19.5064 8.51991C19.8534 8.40352 20.2168 8.34445 20.5825 8.34501ZM25.423 29.4067C25.423 29.4067 24.926 29.0114 24.1703 27.8511C24.1703 27.8511 24.0893 32.1754 18.7261 34.5203C18.7261 34.5203 17.9384 34.8641 17.673 34.969C17.3833 35.0854 17.0851 35.2246 17.0851 35.2246C16.9998 35.7145 16.6836 36.2504 16.6836 36.2504C16.5548 36.0447 16.4087 35.8505 16.2471 35.6698C15.1425 34.4236 13.2485 33.5792 11.7454 32.6274C10.2947 31.71 9.94995 30.8905 9.94995 30.8905C10.4534 33.0163 10.9228 33.5178 10.9228 33.5178C6.76019 31.0787 6.55838 29.5786 6.8771 28.0445L9.16062 16.975L8.22195 17.9513V15.4839L8.53086 15.1659C8.32429 14.5958 8.2197 13.9933 8.22195 13.3864C8.22195 11.0982 9.64958 9.24312 11.4104 9.24312C11.8676 9.24531 12.3161 9.36957 12.7101 9.60322L15.9954 5.99146L19.2807 9.60107C19.6747 9.36776 20.1229 9.24367 20.5799 9.2414C22.3408 9.2414 23.7684 11.0965 23.7684 13.3847C23.7706 13.9916 23.6661 14.594 23.4599 15.1642L23.7684 15.4822V17.95L22.8536 16.9991L25.423 29.4067ZM18.8353 13.386C18.8353 14.6146 19.6353 15.6523 20.5825 15.6523C20.8508 15.6499 21.1128 15.5698 21.3373 15.4216L19.8298 13.854L20.9712 12.6014L22.2721 13.9425C22.3092 13.7594 22.328 13.5729 22.328 13.386C22.328 12.1575 21.528 11.1197 20.5786 11.1197C19.6293 11.1197 18.8353 12.1575 18.8353 13.386ZM19.3972 24.422L21.2639 21.5622L21.403 20.3732C19.611 21.313 18.1778 21.1183 17.8237 20.9748C17.4883 20.8386 17.3688 20.879 17.3586 20.8824C17.3914 20.8334 17.6799 20.0694 17.6799 20.0556L16.6793 20.3268C16.6793 20.3268 17.1427 19.3814 17.26 19.1537L18.3694 18.8855C18.5648 18.8387 18.7858 18.6818 18.7858 18.6818L19.774 17.9762L19.7944 17.9621L19.6289 17.947C19.1378 17.9041 18.1548 17.8224 17.2489 17.7721L16.0001 19.1709L14.7529 17.773C13.8518 17.8233 12.8402 17.9019 12.3299 17.9449L12.2224 17.9543L12.2505 17.9741L13.2378 18.6806C13.2378 18.6806 13.4593 18.8374 13.6547 18.8842C13.8501 18.9311 14.7679 19.1365 14.7679 19.1365C14.8767 19.2826 15.5939 20.2108 15.5939 20.2108C15.7185 20.3431 15.7599 20.5417 15.7599 20.714V22.7818L15.753 23.8174C15.8012 23.8477 15.8567 23.8641 15.9135 23.8647C16.0415 23.8647 16.4873 23.5548 16.4873 23.5548C16.4873 23.5548 16.9059 23.795 16.9626 23.8264C17.0194 23.8578 17.0424 23.887 17.2046 23.7894C17.4435 23.6502 17.4708 23.4483 17.4708 23.4483L18.5132 24.4796L17.1738 24.2763H17.1589L15.9962 24.7958L14.7832 24.2333C14.031 24.7 12.9268 25.7618 12.6499 26.1241C12.4494 26.3871 12.3717 26.5856 12.3717 26.9182C12.3717 27.2508 12.472 27.4872 12.7088 27.7119C12.9127 27.907 13.1994 28.1695 13.566 28.4811C14.3715 29.1708 15.4881 30.0182 16.0581 30.0182C16.6281 30.0182 17.7033 29.4346 18.5161 28.5524C19.3144 27.6865 19.8648 27.036 20.091 26.6892C20.2396 26.4718 20.3268 26.2178 20.3431 25.9544C20.3525 25.7992 20.4387 24.4538 20.4583 24.1453L19.3972 24.422ZM12.5364 19.2224L11.4544 18.3363L10.6335 19.6384C10.6335 19.6384 11.0205 19.7497 11.5581 19.4729C12.0957 19.1962 12.5364 19.2224 12.5364 19.2224ZM12.3866 19.9676L11.995 20.2108L12.3726 20.4781L13.272 20.549L13.6406 20.4506L13.31 20.1326L12.3866 19.9676ZM10.5452 20.3732L10.5848 21.5988L12.1507 23.1758C12.1507 23.1758 12.7212 23.3907 12.9976 23.4491C13.2434 23.5011 13.2865 23.456 13.6666 22.979L14.5533 21.799L14.1266 20.9752C13.7703 21.117 12.3393 21.3117 10.5452 20.3719V20.3732ZM20.4353 19.4708C20.9729 19.7475 21.3599 19.6362 21.3599 19.6362L20.539 18.3342L19.4561 19.2224C19.4561 19.2224 19.8994 19.1949 20.4374 19.4717L20.4353 19.4708ZM19.6063 19.9654L18.6834 20.13L18.3523 20.448L18.7209 20.5464L19.6208 20.4755L19.9984 20.2082L19.6063 19.9654ZM14.6996 11.9778C14.6991 12.5035 14.8151 13.0226 15.0391 13.4973C15.2632 13.972 15.5896 14.3905 15.9945 14.722C16.3991 14.3901 16.7253 13.9717 16.9493 13.497C17.1732 13.0223 17.2895 12.5034 17.2895 11.9778C17.2895 11.4523 17.1732 10.9333 16.9493 10.4587C16.7253 9.98401 16.3991 9.56555 15.9945 9.23366C15.5898 9.5655 15.2637 9.98412 15.0399 10.459C14.8162 10.9339 14.7005 11.4531 14.7013 11.9787L14.6996 11.9778ZM9.66067 13.3852C9.66069 13.5721 9.67941 13.7585 9.71657 13.9416L11.0196 12.6005L12.1609 13.8531L10.6531 15.4207C10.8775 15.5689 11.1395 15.649 11.4079 15.6515C12.3551 15.6515 13.1572 14.6137 13.1572 13.3852C13.1572 12.1566 12.3568 11.1188 11.4079 11.1188C10.459 11.1188 9.66238 12.1575 9.66238 13.386L9.66067 13.3852ZM16.3414 34.95C15.727 32.731 14.569 31.4195 13.2029 30.068C11.5704 28.4532 8.33075 27.017 8.91657 21.3654L7.5939 28.1949C7.45481 28.8627 7.44798 29.4071 7.84392 30.0573C7.97192 30.2722 9.22633 31.4943 9.53907 31.7194C9.2003 30.9335 9.11241 29.6731 9.16062 28.9907C9.16062 28.9907 9.92265 30.8437 13.1939 32.6622C14.2013 33.2243 15.9574 34.3188 16.3414 34.95ZM17.9333 33.3541C19.2773 30.8342 20.2458 28.8945 20.92 26.9281C20.8807 27.0037 20.8381 27.0789 20.7894 27.1537C20.536 27.543 19.9788 28.2069 19.1288 29.1278C18.1902 30.1484 16.926 30.8617 16.0602 30.8617C15.8751 30.8617 15.4817 30.8617 14.6198 30.3241C15.6652 31.4556 16.5897 32.7499 17.1329 34.6832L17.9333 33.3541ZM24.1699 26.9492L22.9385 20.6405C22.5887 25.9479 21.2771 28.8554 18.6544 33.7718C22.8929 31.8178 23.2961 28.4875 23.4416 27.8374C23.5425 27.3592 23.6177 26.876 23.6669 26.3897L24.1699 26.9492ZM13.819 26.0747C13.7797 26.7081 15.0136 27.7935 16.0833 27.7935C16.8611 27.7935 17.3778 27.0905 17.3778 27.0905C16.4895 27.3428 15.404 27.2663 15.0584 27.0415C14.7128 26.8168 14.6036 26.5143 14.7832 26.3716V26.3695C15.1881 26.32 15.5983 26.3366 15.998 26.4189C17.1926 26.1787 17.9743 26.5628 17.9743 26.5628C18.1676 26.3974 18.1765 26.0755 18.1765 26.0755L16.789 25.4645L15.9988 25.6596L15.209 25.4645L13.819 26.0747Z" fill="#2E1A47"/></svg>