<svg class="w-auto h-[66px] lg:overflow-visible" viewBox="0 0 34 45" fill="none" xmlns="http://www.w3.org/2000/svg"><path d="M34.0003 5.56383L17.3908 0.180908L0.78125 5.56383C0.78125 5.56383 2.03959 11.2586 2.03959 17.1888C2.03959 23.1191 1.42614 27.9725 1.42614 30.2239C1.42614 32.4753 1.67728 34.7687 3.91536 37.7244C6.15343 40.6802 10.6708 42.341 12.0731 42.8384C13.4754 43.3358 16.1063 44.0687 17.3908 44.819C18.6752 44.0687 21.3062 43.3349 22.7089 42.8384C24.1116 42.3419 28.6277 40.6798 30.8662 37.7244C33.1047 34.7691 33.3554 32.4758 33.3554 30.2239C33.3554 27.9721 32.742 23.1196 32.742 17.1888C32.742 11.2581 34.0003 5.56383 34.0003 5.56383Z" fill="#43B02A" class="stroke-none"/><path d="M25.0364 23.7169L24.9274 23.2471L24.8791 23.0384L24.3352 20.6955L24.5009 20.7076L24.9487 17.6153C24.7175 17.593 24.5602 17.5747 24.3397 17.5546L25.3743 14.1911V9.68565L20.8406 13.9859L20.1275 17.2584C18.7961 17.1942 18.0506 17.1919 17.9913 17.1919L17.6755 20.373C18.2185 20.3775 18.8085 20.3935 19.4077 20.4154C19.6615 20.7733 19.9429 21.1105 20.2493 21.424C19.9833 21.4029 19.7199 21.4885 19.5163 21.6622L18.2938 22.7029C18.2158 22.7726 18.1561 22.8606 18.1199 22.9591C18.0838 23.0576 18.0723 23.1636 18.0865 23.2676L18.2761 24.663C18.2761 24.663 18.482 24.6554 18.5954 24.3383L18.8306 23.608L19.0623 23.6566C20.2506 23.8645 21.8673 23.5228 22.2455 23.2703L21.714 27.1562C21.6697 27.6612 21.4332 28.0698 21.1342 28.461C21.1342 28.461 18.7425 31.1656 17.4434 31.1656C16.1443 31.1656 14.2251 28.986 14.1361 28.846C14.0589 28.7189 14.0032 28.5797 13.9713 28.4342C13.7804 27.7307 14.0887 27.24 14.7203 26.8796L15.3276 26.533C15.44 26.4555 15.5675 26.4027 15.7016 26.3782C15.8357 26.3537 15.9734 26.3579 16.1058 26.3907L17.3876 26.8613L18.4422 26.562L19.2456 26.7253L18.6893 25.9923C18.6893 25.9923 18.6588 26.148 18.4355 26.2123L18.0028 25.9L17.3871 26.1677V23.422C17.3871 23.1338 17.3136 22.913 17.0771 22.731L15.58 21.6109C15.3658 21.449 15.0967 21.3792 14.8315 21.4168L14.4864 21.4668C14.8088 21.1413 15.1041 20.7896 15.3692 20.4154C15.9689 20.3935 16.5584 20.3775 17.1015 20.373L16.7865 17.1915C16.7272 17.1915 15.9813 17.1915 14.6503 17.258L13.9355 13.9859L9.40438 9.68387V14.1893L10.4364 17.5546C10.2149 17.5747 10.059 17.593 9.82781 17.6153L10.2756 20.7076L10.4413 20.6955L9.87255 23.145L9.13818 26.3055L10.2628 25.6975C10.3235 26.6709 10.6575 27.6069 11.2257 28.3967L11.5906 28.9089L12.395 27.369C12.4929 28.0354 12.8158 28.5484 13.1006 28.9213L13.1169 28.9432L13.1236 28.9508L13.2485 31.6599C13.2794 32.077 13.4337 32.4752 13.6914 32.8032L16.9916 36.9224C17.0394 36.9821 17.0999 37.0303 17.1686 37.0635C17.2373 37.0966 17.3125 37.1138 17.3887 37.1138C17.4649 37.1138 17.5401 37.0966 17.6088 37.0635C17.6775 37.0303 17.738 36.9821 17.7858 36.9224L21.082 32.8045C21.3397 32.4766 21.494 32.0783 21.5249 31.6612L21.6498 28.9535L21.6578 28.9445L21.6742 28.9227C21.9594 28.5493 22.2827 28.0354 22.3802 27.3681L23.1859 28.9102L23.5508 28.3981C24.1188 27.6083 24.4527 26.6725 24.5137 25.6993L25.6374 26.3073L25.0364 23.7169ZM14.4922 22.4384L15.3338 22.5508L15.7461 22.8452L15.3572 23.0111L14.5542 22.9978L14.1007 22.7676L14.4922 22.4384ZM12.7294 15.7355L13.0669 17.3512C12.8051 17.369 12.2966 17.4043 12.0114 17.4257L10.998 13.4029C11.7753 13.894 12.5181 14.6649 12.7294 15.7355ZM11.5158 27.3832C10.8992 26.1788 11.0458 25.1082 11.0476 25.0988L11.1676 24.3249L10.2818 24.8035L10.5653 23.5817C10.9939 23.5027 11.4144 23.3841 11.8214 23.2275L11.8413 23.3734L12.2076 26.0543L11.5158 27.3832ZM10.7597 22.7515L11.2505 20.6384C12.0845 20.5813 13.1993 20.5122 14.3509 20.46C13.6732 21.2567 12.4911 22.3282 10.7597 22.7515ZM13.3021 24.5412L12.7608 23.269L13.144 23.4068C14.0813 23.7442 15.0932 23.8133 16.0672 23.6067L15.8763 24.0434C15.7947 24.2299 15.6717 24.395 15.5167 24.5261L14.5139 25.3736L13.9381 25.1724C13.7926 25.1208 13.6601 25.0374 13.5502 24.9283C13.4402 24.8192 13.3555 24.687 13.3021 24.5412ZM20.8419 31.5894C20.8228 31.8429 20.729 32.0848 20.5726 32.2844L17.4868 36.1395C17.4748 36.1544 17.4596 36.1664 17.4424 36.1747C17.4252 36.1829 17.4064 36.1872 17.3874 36.1872C17.3683 36.1872 17.3495 36.1829 17.3323 36.1747C17.3151 36.1664 17.2999 36.1544 17.2879 36.1395L15.39 33.7685C14.6649 32.8763 15.3457 31.1785 16.3299 31.7031C16.7489 31.9262 17.388 31.9208 17.388 31.9208C18.521 31.9208 19.992 30.6562 20.9194 29.7274L20.8419 31.5894ZM22.0484 15.735C22.261 14.6644 23.0025 13.8936 23.7798 13.4024L22.766 17.4253C22.4812 17.4038 21.9727 17.3686 21.7105 17.3508L22.0484 15.735ZM20.5518 22.9973L19.7488 23.0107L19.3603 22.8448L19.7727 22.5503L20.6143 22.4379L21.0062 22.7649L20.5518 22.9973ZM20.4282 20.4577C21.5798 20.5117 22.6933 20.5809 23.5287 20.6362L24.0194 22.7493C22.2867 22.3282 21.1046 21.2567 20.4282 20.4582V20.4577ZM23.7302 25.097C23.7302 25.1095 23.8786 26.1793 23.2625 27.3832L22.5666 26.0517L22.9329 23.3752L22.9529 23.2288C23.3605 23.3862 23.7815 23.5056 24.2108 23.5857L24.4942 24.8071L23.6173 24.3289L23.7302 25.097ZM16.3463 27.8904C16.3463 27.8904 16.678 28.5043 17.1125 28.5043H18.6871C18.4656 29.0297 17.9532 29.0668 17.3871 29.0668C16.7746 29.0668 16.6315 29.0668 16.1992 28.6702C16.0039 28.4918 15.1384 27.2726 15.1384 27.2726H16.903L17.3876 27.4698L17.8748 27.2726H19.6389C19.6389 27.2726 19.5672 27.7602 18.6756 27.9248L18.4422 27.9569C17.7448 28.0527 17.0363 28.0303 16.3463 27.8904ZM20.4464 13.0616L19.8573 11.8933L22.4998 11.1796L20.4464 13.0616ZM14.897 13.8365L17.388 7.41284L19.8781 13.8365L19.4175 16.4604C18.7124 16.4336 18.2482 16.4269 18.0652 16.4256L18.3106 13.9592L17.3902 11.3888L16.4672 13.9592L16.7121 16.4256C16.5301 16.4256 16.0655 16.4336 15.3603 16.4604L14.897 13.8365ZM14.3297 13.0616L12.2772 11.1805L14.9205 11.8942L14.3297 13.0616Z" fill="#13322B"/></svg>