<svg class="w-[32px] lg:w-[88px] h-full lg:overflow-visible" viewBox="0 0 154 200" fill="none" xmlns="http://www.w3.org/2000/svg"><path d="M78.2819 0.555404L76.561 0L74.8401 0.555404L4.87482 23.0988L0 24.6689L1.11227 29.6736C1.16324 29.9047 6.2779 53.2467 6.2779 77.1411C6.2779 92.3051 5.31853 105.524 4.54803 116.145C4.07134 122.732 3.69359 127.935 3.69359 131.736C3.69359 141.193 4.593 152.463 15.332 166.558C22.3414 175.763 35.1251 183.824 52.2948 189.87C53.9168 190.441 55.8805 191.074 57.9611 191.743C63.4446 193.512 70.2711 195.712 73.7398 197.724L76.558 199.36L79.3762 197.724C82.8449 195.709 89.6714 193.509 95.1578 191.743C97.2385 191.074 99.2022 190.441 100.824 189.87C117.994 183.821 130.778 175.76 137.787 166.558C148.526 152.46 149.425 141.193 149.425 131.736C149.425 127.938 149.048 122.732 148.571 116.145C147.8 105.524 146.841 92.3081 146.841 77.1411C146.841 53.2497 151.956 29.9078 152.007 29.6736L153.116 24.6689L148.244 23.0988L78.2819 0.555404Z" fill="#F4AF23" class="lg:stroke-[12px] lg:stroke-white"/><path d="M108.959 83.2487C109.508 83.2988 110.056 83.3434 110.602 83.3963V63.6206C108.04 63.3728 105.467 63.1416 102.888 62.9272L110.602 52.6843V36.1781L95.9397 54.4053L79.2303 25.4951V47.4124L87.7855 61.9608C84.9421 61.8411 82.0904 61.7631 79.2303 61.7324V81.7894C84.555 81.8284 89.8519 81.9844 95.1154 82.2573L95.263 82.636L97.0537 87.2868L87.1979 87.0083L83.8532 88.6598L79.5895 90.7652L79.5728 90.7763L77.991 91.5561L82.3243 99.5349L82.3577 99.5989L82.4608 99.7883L84.3545 97.9001V94.7588L92.467 96.6247L98.8611 92.1298L100.872 97.1844L95.1823 107.884L101.571 106.093L98.6244 120.572L91.6872 129.347L87.2397 124.304L76.6626 119.884L76.5233 119.826L65.807 124.304L61.3595 129.347V119.302L69.678 111.198L76.5233 114.479L76.6626 114.409L83.3686 111.198L87.1422 114.871L87.1533 114.883L91.6872 119.302V110.151L87.0531 104.757C87.0531 104.757 86.0004 107.519 84.9783 107.968L84.9727 107.973C84.9087 108.001 84.8446 108.021 84.7834 108.032C83.7028 108.176 79.2442 106.288 79.2442 106.288C79.2442 106.288 79.2108 107.831 76.6626 108.171L76.5233 108.193C76.2393 108.221 75.9329 108.241 75.5876 108.241L75.0334 91.5617L69.1684 88.6654L65.8265 87.0139L55.9706 87.2924L57.7613 82.6416L57.9006 82.2795C63.2198 81.9983 68.5724 81.8368 73.9528 81.795V61.738C71.0927 61.7714 68.2382 61.8494 65.392 61.9719L73.9528 47.418V25.4951L57.2461 54.4025L42.578 36.1781V52.687L50.3006 62.9411C47.7189 63.1555 45.1457 63.3895 42.578 63.6373V83.413C43.1238 83.3601 43.6725 83.3155 44.2211 83.2654L35.2676 125.49L76.4704 166.746L76.54 166.816L76.6096 166.746L117.916 125.49L108.959 83.2487ZM90.1165 93.0572L86.0617 92.0184V91.2553L92.0242 90.2918L92.6368 90.9741L90.1193 93.06L90.1165 93.0572ZM68.6726 97.8974L61.4235 109.238L57.8421 107.879L52.1525 97.1788L54.1632 92.1242L60.5574 96.6191L68.6754 94.7532V97.8946L68.6726 97.8974ZM60.4126 90.9713L61.0253 90.289L66.9878 91.2525V92.0156L62.9329 93.0544L60.4154 90.9685L60.4126 90.9713ZM76.5261 160.107L40.0855 123.669L42.6922 112.373L44.9786 122.859L62.4484 140.328V136.193L67.5949 128.891L76.5205 125.256L76.6598 125.315L85.4462 128.891L90.5927 136.193V140.328L108.062 122.859L110.349 112.373L112.956 123.669L76.657 159.968L76.5177 160.107H76.5261Z" fill="black"/><path d="M59.1752 42.4945L48.6621 37.5791L56.4348 47.24L59.1752 42.4945Z" fill="black"/><path d="M104.517 37.5791L94.0039 42.4945L96.7443 47.24L104.517 37.5791Z" fill="black"/></svg>