<svg width="474" height="36" viewBox="0 0 474 36" fill="none" xmlns="http://www.w3.org/2000/svg" class="w-auto h-[23px] lg:h-[36px]" data-v-4789d3f8=""><mask id="path-1-inside-1_366_1125" fill="white" data-v-4789d3f8=""><path d="M30.4113 30H21.1443L14.5204 21.0593L10.3111 25.0402V30H2.34937V7.15892H10.3111V16.8174L20.2307 7.15892H29.8566L20.1328 16.328L30.4113 30ZM41.2753 30H33.3136V7.15892H41.2753V30ZM67.1092 7.15892H74.8099V30H67.827L54.5792 16.328V30H46.9111V7.15892H55.3297L67.1092 19.5584V7.15892ZM107.964 16.4911V25.9539C105.353 28.9558 100.818 30.7505 94.8137 30.7505C85.2531 30.7505 79.2817 26.4107 79.2817 18.5795C79.2817 10.7482 85.2531 6.40843 94.8137 6.40843C100.524 6.40843 104.635 8.23571 107.148 10.4872L101.601 14.6312C99.6103 13.0323 97.8156 12.3797 95.0747 12.3797C89.9518 12.3797 87.3414 14.6638 87.3414 18.5795C87.3414 22.5277 90.0497 24.8771 95.14 24.8771C97.3262 24.8771 99.0556 24.4855 100.622 23.4413V21.5488H93.9979V16.4911H107.964ZM125.616 15.1207C133.251 15.7406 138.668 17.209 138.668 22.6256C138.668 27.5527 134.263 30.7505 125.812 30.7505C119.873 30.7505 114.718 29.1842 111.03 26.4107L114.979 21.8425C117.589 23.8003 121.472 25.1381 125.942 25.1381C129.205 25.1381 130.804 24.5834 130.804 23.4413C130.804 22.3319 129.499 21.9404 125.257 21.5814C118.242 20.9615 112.009 19.3626 112.009 14.1418C112.009 9.14936 117.458 6.40843 124.865 6.40843C129.662 6.40843 134.393 7.51785 137.689 9.70407L133.904 14.3375C131.326 12.6408 128.292 11.9555 124.865 11.9555C122.549 11.9555 119.873 12.2492 119.873 13.4892C119.873 14.5986 121.929 14.827 125.616 15.1207ZM159.993 23.8982H174.644V30H152.031V7.15892H159.993V23.8982ZM186.301 24.2571H203.595V30H178.502V7.15892H203.236V12.9018H186.301V15.8059H200.103V21.092H186.301V24.2571ZM228.945 30L227.085 26.0518H215.664L213.804 30H205.516L217.1 7.15892H225.747L237.331 30H228.945ZM218.079 20.8962H224.67L221.374 13.8481L218.079 20.8962ZM266.313 16.4911V25.9539C263.702 28.9558 259.167 30.7505 253.163 30.7505C243.602 30.7505 237.631 26.4107 237.631 18.5795C237.631 10.7482 243.602 6.40843 253.163 6.40843C258.873 6.40843 262.984 8.23571 265.497 10.4872L259.95 14.6312C257.959 13.0323 256.165 12.3797 253.424 12.3797C248.301 12.3797 245.69 14.6638 245.69 18.5795C245.69 22.5277 248.399 24.8771 253.489 24.8771C255.675 24.8771 257.405 24.4855 258.971 23.4413V21.5488H252.347V16.4911H266.313ZM290.034 7.15892H297.996V19.2321C297.996 26.2802 293.102 30.7505 284.357 30.7505C275.612 30.7505 270.685 26.2802 270.685 19.2321V7.15892H278.646V18.6121C278.646 22.0056 280.408 24.4529 284.357 24.4529C288.272 24.4529 290.034 22.0056 290.034 18.6121V7.15892ZM311.082 24.2571H328.376V30H303.283V7.15892H328.017V12.9018H311.082V15.8059H324.884V21.092H311.082V24.2571Z" data-v-4789d3f8=""/></mask><path d="M30.4113 30H21.1443L14.5204 21.0593L10.3111 25.0402V30H2.34937V7.15892H10.3111V16.8174L20.2307 7.15892H29.8566L20.1328 16.328L30.4113 30ZM41.2753 30H33.3136V7.15892H41.2753V30ZM67.1092 7.15892H74.8099V30H67.827L54.5792 16.328V30H46.9111V7.15892H55.3297L67.1092 19.5584V7.15892ZM107.964 16.4911V25.9539C105.353 28.9558 100.818 30.7505 94.8137 30.7505C85.2531 30.7505 79.2817 26.4107 79.2817 18.5795C79.2817 10.7482 85.2531 6.40843 94.8137 6.40843C100.524 6.40843 104.635 8.23571 107.148 10.4872L101.601 14.6312C99.6103 13.0323 97.8156 12.3797 95.0747 12.3797C89.9518 12.3797 87.3414 14.6638 87.3414 18.5795C87.3414 22.5277 90.0497 24.8771 95.14 24.8771C97.3262 24.8771 99.0556 24.4855 100.622 23.4413V21.5488H93.9979V16.4911H107.964ZM125.616 15.1207C133.251 15.7406 138.668 17.209 138.668 22.6256C138.668 27.5527 134.263 30.7505 125.812 30.7505C119.873 30.7505 114.718 29.1842 111.03 26.4107L114.979 21.8425C117.589 23.8003 121.472 25.1381 125.942 25.1381C129.205 25.1381 130.804 24.5834 130.804 23.4413C130.804 22.3319 129.499 21.9404 125.257 21.5814C118.242 20.9615 112.009 19.3626 112.009 14.1418C112.009 9.14936 117.458 6.40843 124.865 6.40843C129.662 6.40843 134.393 7.51785 137.689 9.70407L133.904 14.3375C131.326 12.6408 128.292 11.9555 124.865 11.9555C122.549 11.9555 119.873 12.2492 119.873 13.4892C119.873 14.5986 121.929 14.827 125.616 15.1207ZM159.993 23.8982H174.644V30H152.031V7.15892H159.993V23.8982ZM186.301 24.2571H203.595V30H178.502V7.15892H203.236V12.9018H186.301V15.8059H200.103V21.092H186.301V24.2571ZM228.945 30L227.085 26.0518H215.664L213.804 30H205.516L217.1 7.15892H225.747L237.331 30H228.945ZM218.079 20.8962H224.67L221.374 13.8481L218.079 20.8962ZM266.313 16.4911V25.9539C263.702 28.9558 259.167 30.7505 253.163 30.7505C243.602 30.7505 237.631 26.4107 237.631 18.5795C237.631 10.7482 243.602 6.40843 253.163 6.40843C258.873 6.40843 262.984 8.23571 265.497 10.4872L259.95 14.6312C257.959 13.0323 256.165 12.3797 253.424 12.3797C248.301 12.3797 245.69 14.6638 245.69 18.5795C245.69 22.5277 248.399 24.8771 253.489 24.8771C255.675 24.8771 257.405 24.4855 258.971 23.4413V21.5488H252.347V16.4911H266.313ZM290.034 7.15892H297.996V19.2321C297.996 26.2802 293.102 30.7505 284.357 30.7505C275.612 30.7505 270.685 26.2802 270.685 19.2321V7.15892H278.646V18.6121C278.646 22.0056 280.408 24.4529 284.357 24.4529C288.272 24.4529 290.034 22.0056 290.034 18.6121V7.15892ZM311.082 24.2571H328.376V30H303.283V7.15892H328.017V12.9018H311.082V15.8059H324.884V21.092H311.082V24.2571Z" fill="currentColor" data-v-4789d3f8=""/><path d="M30.4113 30V31H32.4141L31.2106 29.3991L30.4113 30ZM21.1443 30L20.3408 30.5953L20.6406 31H21.1443V30ZM14.5204 21.0593L15.3239 20.4641L14.6526 19.5579L13.8333 20.3328L14.5204 21.0593ZM10.3111 25.0402L9.624 24.3137L9.31112 24.6096V25.0402H10.3111ZM10.3111 30V31H11.3111V30H10.3111ZM2.34937 30H1.34937V31H2.34937V30ZM2.34937 7.15892V6.15892H1.34937V7.15892H2.34937ZM10.3111 7.15892H11.3111V6.15892H10.3111V7.15892ZM10.3111 16.8174H9.31112V19.1868L11.0087 17.5339L10.3111 16.8174ZM20.2307 7.15892V6.15892H19.8242L19.5331 6.44245L20.2307 7.15892ZM29.8566 7.15892L30.5426 7.88647L32.3747 6.15892H29.8566V7.15892ZM20.1328 16.328L19.4467 15.6004L18.796 16.214L19.3335 16.9289L20.1328 16.328ZM30.4113 29H21.1443V31H30.4113V29ZM21.9478 29.4047L15.3239 20.4641L13.7169 21.6546L20.3408 30.5953L21.9478 29.4047ZM13.8333 20.3328L9.624 24.3137L10.9982 25.7668L15.2075 21.7859L13.8333 20.3328ZM9.31112 25.0402V30H11.3111V25.0402H9.31112ZM10.3111 29H2.34937V31H10.3111V29ZM3.34937 30V7.15892H1.34937V30H3.34937ZM2.34937 8.15892H10.3111V6.15892H2.34937V8.15892ZM9.31112 7.15892V16.8174H11.3111V7.15892H9.31112ZM11.0087 17.5339L20.9283 7.87539L19.5331 6.44245L9.6135 16.101L11.0087 17.5339ZM20.2307 8.15892H29.8566V6.15892H20.2307V8.15892ZM29.1705 6.43137L19.4467 15.6004L20.8188 17.0555L30.5426 7.88647L29.1705 6.43137ZM19.3335 16.9289L29.612 30.6009L31.2106 29.3991L20.9321 15.7271L19.3335 16.9289ZM41.2753 30V31H42.2753V30H41.2753ZM33.3136 30H32.3136V31H33.3136V30ZM33.3136 7.15892V6.15892H32.3136V7.15892H33.3136ZM41.2753 7.15892H42.2753V6.15892H41.2753V7.15892ZM41.2753 29H33.3136V31H41.2753V29ZM34.3136 30V7.15892H32.3136V30H34.3136ZM33.3136 8.15892H41.2753V6.15892H33.3136V8.15892ZM40.2753 7.15892V30H42.2753V7.15892H40.2753ZM67.1092 7.15892V6.15892H66.1092V7.15892H67.1092ZM74.8099 7.15892H75.8099V6.15892H74.8099V7.15892ZM74.8099 30V31H75.8099V30H74.8099ZM67.827 30L67.1089 30.6959L67.4036 31H67.827V30ZM54.5792 16.328L55.2974 15.6321L53.5792 13.8589V16.328H54.5792ZM54.5792 30V31H55.5792V30H54.5792ZM46.9111 30H45.9111V31H46.9111V30ZM46.9111 7.15892V6.15892H45.9111V7.15892H46.9111ZM55.3297 7.15892L56.0547 6.47017L55.759 6.15892H55.3297V7.15892ZM67.1092 19.5584L66.3842 20.2471L68.1092 22.0629V19.5584H67.1092ZM67.1092 8.15892H74.8099V6.15892H67.1092V8.15892ZM73.8099 7.15892V30H75.8099V7.15892H73.8099ZM74.8099 29H67.827V31H74.8099V29ZM68.5452 29.3041L55.2974 15.6321L53.8611 17.0239L67.1089 30.6959L68.5452 29.3041ZM53.5792 16.328V30H55.5792V16.328H53.5792ZM54.5792 29H46.9111V31H54.5792V29ZM47.9111 30V7.15892H45.9111V30H47.9111ZM46.9111 8.15892H55.3297V6.15892H46.9111V8.15892ZM54.6047 7.84767L66.3842 20.2471L67.8342 18.8696L56.0547 6.47017L54.6047 7.84767ZM68.1092 19.5584V7.15892H66.1092V19.5584H68.1092ZM107.964 16.4911H108.964V15.4911H107.964V16.4911ZM107.964 25.9539L108.718 26.61L108.964 26.3278V25.9539H107.964ZM107.148 10.4872L107.746 11.2883L108.725 10.5574L107.815 9.74246L107.148 10.4872ZM101.601 14.6312L100.974 15.4108L101.579 15.896L102.199 15.4323L101.601 14.6312ZM100.622 23.4413L101.177 24.2734L101.622 23.9765V23.4413H100.622ZM100.622 21.5488H101.622V20.5488H100.622V21.5488ZM93.9979 21.5488H92.9979V22.5488H93.9979V21.5488ZM93.9979 16.4911V15.4911H92.9979V16.4911H93.9979ZM106.964 16.4911V25.9539H108.964V16.4911H106.964ZM107.209 25.2977C104.851 28.0091 100.64 29.7505 94.8137 29.7505V31.7505C100.995 31.7505 105.855 29.9025 108.718 26.61L107.209 25.2977ZM94.8137 29.7505C90.1677 29.7505 86.527 28.694 84.0715 26.8085C81.6514 24.9503 80.2817 22.2122 80.2817 18.5795H78.2817C78.2817 22.778 79.8977 26.1254 82.8535 28.3948C85.7737 30.6371 89.899 31.7505 94.8137 31.7505V29.7505ZM80.2817 18.5795C80.2817 14.9467 81.6514 12.2086 84.0715 10.3504C86.527 8.46495 90.1677 7.40843 94.8137 7.40843V5.40843C89.899 5.40843 85.7737 6.52181 82.8535 8.76407C79.8977 11.0336 78.2817 14.381 78.2817 18.5795H80.2817ZM94.8137 7.40843C100.308 7.40843 104.173 9.16387 106.48 11.2319L107.815 9.74246C105.098 7.30756 100.74 5.40843 94.8137 5.40843V7.40843ZM106.549 9.68606L101.002 13.8301L102.199 15.4323L107.746 11.2883L106.549 9.68606ZM102.227 13.8516C100.056 12.1078 98.0398 11.3797 95.0747 11.3797V13.3797C97.5915 13.3797 99.1644 13.9569 100.974 15.4108L102.227 13.8516ZM95.0747 11.3797C92.3833 11.3797 90.1897 11.9775 88.6528 13.238C87.0842 14.5246 86.3414 16.3842 86.3414 18.5795H88.3414C88.3414 16.8591 88.9038 15.6189 89.9211 14.7844C90.9701 13.9241 92.6432 13.3797 95.0747 13.3797V11.3797ZM86.3414 18.5795C86.3414 20.799 87.1138 22.6786 88.6964 23.981C90.25 25.2596 92.4573 25.8771 95.14 25.8771V23.8771C92.7324 23.8771 91.0403 23.3198 89.9673 22.4367C88.9231 21.5774 88.3414 20.3082 88.3414 18.5795H86.3414ZM95.14 25.8771C97.455 25.8771 99.3969 25.4598 101.177 24.2734L100.067 22.6093C98.7142 23.5112 97.1974 23.8771 95.14 23.8771V25.8771ZM101.622 23.4413V21.5488H99.6218V23.4413H101.622ZM100.622 20.5488H93.9979V22.5488H100.622V20.5488ZM94.9979 21.5488V16.4911H92.9979V21.5488H94.9979ZM93.9979 17.4911H107.964V15.4911H93.9979V17.4911ZM125.616 15.1207L125.697 14.1239L125.695 14.1238L125.616 15.1207ZM111.03 26.4107L110.274 25.7568L109.574 26.5665L110.429 27.2098L111.03 26.4107ZM114.979 21.8425L115.579 21.0425L114.832 20.4826L114.222 21.1886L114.979 21.8425ZM125.257 21.5814L125.169 22.5776L125.173 22.5779L125.257 21.5814ZM137.689 9.70407L138.464 10.3367L139.162 9.48132L138.242 8.87075L137.689 9.70407ZM133.904 14.3375L133.354 15.1728L134.108 15.6688L134.678 14.9702L133.904 14.3375ZM125.535 16.1174C129.348 16.427 132.443 16.9414 134.568 17.9739C135.613 18.4816 136.375 19.0925 136.879 19.8228C137.377 20.5443 137.668 21.4476 137.668 22.6256H139.668C139.668 21.0953 139.282 19.7839 138.526 18.6872C137.775 17.5994 136.706 16.7889 135.442 16.1749C132.95 14.9641 129.52 14.4344 125.697 14.1239L125.535 16.1174ZM137.668 22.6256C137.668 24.7416 136.745 26.4632 134.861 27.6996C132.928 28.9673 129.933 29.7505 125.812 29.7505V31.7505C130.142 31.7505 133.575 30.9348 135.958 29.3719C138.388 27.7776 139.668 25.4367 139.668 22.6256H137.668ZM125.812 29.7505C120.039 29.7505 115.109 28.2271 111.631 25.6115L110.429 27.2098C114.326 30.1414 119.707 31.7505 125.812 31.7505V29.7505ZM111.787 27.0646L115.735 22.4964L114.222 21.1886L110.274 25.7568L111.787 27.0646ZM114.379 22.6425C117.183 24.7459 121.283 26.1381 125.942 26.1381V24.1381C121.661 24.1381 117.995 22.8547 115.579 21.0425L114.379 22.6425ZM125.942 26.1381C127.602 26.1381 128.955 26.0006 129.926 25.6623C130.416 25.4914 130.88 25.2454 131.23 24.875C131.602 24.4811 131.804 23.9881 131.804 23.4413H129.804C129.804 23.4656 129.806 23.4702 129.776 23.5015C129.725 23.5563 129.585 23.6632 129.268 23.7737C128.623 23.9983 127.545 24.1381 125.942 24.1381V26.1381ZM131.804 23.4413C131.804 22.9404 131.645 22.4508 131.259 22.044C130.907 21.6739 130.432 21.4438 129.933 21.2799C128.948 20.9562 127.446 20.7631 125.341 20.585L125.173 22.5779C127.31 22.7587 128.581 22.9408 129.309 23.18C129.667 23.2976 129.784 23.3958 129.809 23.4224C129.816 23.4289 129.809 23.4227 129.803 23.4079C129.799 23.3957 129.804 23.4017 129.804 23.4413H131.804ZM125.345 20.5853C121.856 20.277 118.691 19.7322 116.423 18.6798C115.299 18.1583 114.449 17.5361 113.883 16.8063C113.328 16.0925 113.009 15.2306 113.009 14.1418H111.009C111.009 15.6633 111.469 16.9591 112.303 18.0328C113.124 19.0906 114.27 19.8857 115.581 20.494C118.183 21.7013 121.643 22.2659 125.169 22.5775L125.345 20.5853ZM113.009 14.1418C113.009 12.0824 114.105 10.4446 116.156 9.2709C118.242 8.07769 121.265 7.40843 124.865 7.40843V5.40843C121.059 5.40843 117.654 6.10963 115.163 7.53499C112.638 8.97981 111.009 11.2087 111.009 14.1418H113.009ZM124.865 7.40843C129.536 7.40843 134.055 8.49323 137.136 10.5374L138.242 8.87075C134.732 6.54248 129.788 5.40843 124.865 5.40843V7.40843ZM136.915 9.07143L133.13 13.7049L134.678 14.9702L138.464 10.3367L136.915 9.07143ZM134.454 13.5023C131.667 11.668 128.424 10.9555 124.865 10.9555V12.9555C128.159 12.9555 130.985 13.6136 133.354 15.1728L134.454 13.5023ZM124.865 10.9555C123.684 10.9555 122.343 11.0287 121.269 11.2846C120.738 11.411 120.19 11.6007 119.752 11.9085C119.292 12.232 118.873 12.7542 118.873 13.4892H120.873C120.873 13.6042 120.789 13.6246 120.903 13.5444C121.039 13.4484 121.304 13.3321 121.732 13.2301C122.575 13.0293 123.73 12.9555 124.865 12.9555V10.9555ZM118.873 13.4892C118.873 14.1444 119.205 14.6463 119.664 14.9796C120.075 15.2785 120.601 15.4574 121.13 15.5835C122.196 15.8379 123.718 15.9727 125.537 16.1175L125.695 14.1238C123.826 13.975 122.477 13.8488 121.594 13.6381C121.148 13.5318 120.93 13.4272 120.84 13.362C120.798 13.3313 120.873 13.3886 120.873 13.4892H118.873ZM159.993 23.8982H158.993V24.8982H159.993V23.8982ZM174.644 23.8982H175.644V22.8982H174.644V23.8982ZM174.644 30V31H175.644V30H174.644ZM152.031 30H151.031V31H152.031V30ZM152.031 7.15892V6.15892H151.031V7.15892H152.031ZM159.993 7.15892H160.993V6.15892H159.993V7.15892ZM159.993 24.8982H174.644V22.8982H159.993V24.8982ZM173.644 23.8982V30H175.644V23.8982H173.644ZM174.644 29H152.031V31H174.644V29ZM153.031 30V7.15892H151.031V30H153.031ZM152.031 8.15892H159.993V6.15892H152.031V8.15892ZM158.993 7.15892V23.8982H160.993V7.15892H158.993ZM186.301 24.2571H185.301V25.2571H186.301V24.2571ZM203.595 24.2571H204.595V23.2571H203.595V24.2571ZM203.595 30V31H204.595V30H203.595ZM178.502 30H177.502V31H178.502V30ZM178.502 7.15892V6.15892H177.502V7.15892H178.502ZM203.236 7.15892H204.236V6.15892H203.236V7.15892ZM203.236 12.9018V13.9018H204.236V12.9018H203.236ZM186.301 12.9018V11.9018H185.301V12.9018H186.301ZM186.301 15.8059H185.301V16.8059H186.301V15.8059ZM200.103 15.8059H201.103V14.8059H200.103V15.8059ZM200.103 21.092V22.092H201.103V21.092H200.103ZM186.301 21.092V20.092H185.301V21.092H186.301ZM186.301 25.2571H203.595V23.2571H186.301V25.2571ZM202.595 24.2571V30H204.595V24.2571H202.595ZM203.595 29H178.502V31H203.595V29ZM179.502 30V7.15892H177.502V30H179.502ZM178.502 8.15892H203.236V6.15892H178.502V8.15892ZM202.236 7.15892V12.9018H204.236V7.15892H202.236ZM203.236 11.9018H186.301V13.9018H203.236V11.9018ZM185.301 12.9018V15.8059H187.301V12.9018H185.301ZM186.301 16.8059H200.103V14.8059H186.301V16.8059ZM199.103 15.8059V21.092H201.103V15.8059H199.103ZM200.103 20.092H186.301V22.092H200.103V20.092ZM185.301 21.092V24.2571H187.301V21.092H185.301ZM228.945 30L228.04 30.4262L228.31 31H228.945V30ZM227.085 26.0518L227.989 25.6256L227.719 25.0518H227.085V26.0518ZM215.664 26.0518V25.0518H215.03L214.759 25.6256L215.664 26.0518ZM213.804 30V31H214.439L214.709 30.4262L213.804 30ZM205.516 30L204.624 29.5477L203.888 31H205.516V30ZM217.1 7.15892V6.15892H216.486L216.208 6.70662L217.1 7.15892ZM225.747 7.15892L226.639 6.70662L226.361 6.15892H225.747V7.15892ZM237.331 30V31H238.959L238.222 29.5477L237.331 30ZM218.079 20.8962L217.173 20.4726L216.507 21.8962H218.079V20.8962ZM224.67 20.8962V21.8962H226.242L225.576 20.4726L224.67 20.8962ZM221.374 13.8481L222.28 13.4245L221.374 11.4872L220.469 13.4245L221.374 13.8481ZM229.849 29.5738L227.989 25.6256L226.18 26.4779L228.04 30.4262L229.849 29.5738ZM227.085 25.0518H215.664V27.0518H227.085V25.0518ZM214.759 25.6256L212.9 29.5738L214.709 30.4262L216.569 26.4779L214.759 25.6256ZM213.804 29H205.516V31H213.804V29ZM206.408 30.4523L217.992 7.61122L216.208 6.70662L204.624 29.5477L206.408 30.4523ZM217.1 8.15892H225.747V6.15892H217.1V8.15892ZM224.855 7.61122L236.439 30.4523L238.222 29.5477L226.639 6.70662L224.855 7.61122ZM237.331 29H228.945V31H237.331V29ZM218.079 21.8962H224.67V19.8962H218.079V21.8962ZM225.576 20.4726L222.28 13.4245L220.469 14.2717L223.764 21.3198L225.576 20.4726ZM220.469 13.4245L217.173 20.4726L218.985 21.3198L222.28 14.2717L220.469 13.4245ZM266.313 16.4911H267.313V15.4911H266.313V16.4911ZM266.313 25.9539L267.067 26.61L267.313 26.3278V25.9539H266.313ZM265.497 10.4872L266.095 11.2883L267.074 10.5574L266.164 9.74246L265.497 10.4872ZM259.95 14.6312L259.324 15.4108L259.928 15.896L260.548 15.4323L259.95 14.6312ZM258.971 23.4413L259.526 24.2734L259.971 23.9765V23.4413H258.971ZM258.971 21.5488H259.971V20.5488H258.971V21.5488ZM252.347 21.5488H251.347V22.5488H252.347V21.5488ZM252.347 16.4911V15.4911H251.347V16.4911H252.347ZM265.313 16.4911V25.9539H267.313V16.4911H265.313ZM265.558 25.2977C263.2 28.0091 258.989 29.7505 253.163 29.7505V31.7505C259.344 31.7505 264.204 29.9025 267.067 26.61L265.558 25.2977ZM253.163 29.7505C248.517 29.7505 244.876 28.694 242.421 26.8085C240 24.9503 238.631 22.2122 238.631 18.5795H236.631C236.631 22.778 238.247 26.1254 241.203 28.3948C244.123 30.6371 248.248 31.7505 253.163 31.7505V29.7505ZM238.631 18.5795C238.631 14.9467 240 12.2086 242.421 10.3504C244.876 8.46495 248.517 7.40843 253.163 7.40843V5.40843C248.248 5.40843 244.123 6.52181 241.203 8.76407C238.247 11.0336 236.631 14.381 236.631 18.5795H238.631ZM253.163 7.40843C258.657 7.40843 262.522 9.16387 264.83 11.2319L266.164 9.74246C263.447 7.30756 259.089 5.40843 253.163 5.40843V7.40843ZM264.898 9.68606L259.351 13.8301L260.548 15.4323L266.095 11.2883L264.898 9.68606ZM260.576 13.8516C258.405 12.1078 256.389 11.3797 253.424 11.3797V13.3797C255.941 13.3797 257.514 13.9569 259.324 15.4108L260.576 13.8516ZM253.424 11.3797C250.732 11.3797 248.539 11.9775 247.002 13.238C245.433 14.5246 244.69 16.3842 244.69 18.5795H246.69C246.69 16.8591 247.253 15.6189 248.27 14.7844C249.319 13.9241 250.992 13.3797 253.424 13.3797V11.3797ZM244.69 18.5795C244.69 20.799 245.463 22.6786 247.045 23.981C248.599 25.2596 250.806 25.8771 253.489 25.8771V23.8771C251.081 23.8771 249.389 23.3198 248.316 22.4367C247.272 21.5774 246.69 20.3082 246.69 18.5795H244.69ZM253.489 25.8771C255.804 25.8771 257.746 25.4598 259.526 24.2734L258.416 22.6093C257.063 23.5112 255.547 23.8771 253.489 23.8771V25.8771ZM259.971 23.4413V21.5488H257.971V23.4413H259.971ZM258.971 20.5488H252.347V22.5488H258.971V20.5488ZM253.347 21.5488V16.4911H251.347V21.5488H253.347ZM252.347 17.4911H266.313V15.4911H252.347V17.4911ZM290.034 7.15892V6.15892H289.034V7.15892H290.034ZM297.996 7.15892H298.996V6.15892H297.996V7.15892ZM270.685 7.15892V6.15892H269.685V7.15892H270.685ZM278.646 7.15892H279.646V6.15892H278.646V7.15892ZM290.034 8.15892H297.996V6.15892H290.034V8.15892ZM296.996 7.15892V19.2321H298.996V7.15892H296.996ZM296.996 19.2321C296.996 22.5106 295.867 25.0962 293.802 26.8771C291.72 28.674 288.569 29.7505 284.357 29.7505V31.7505C288.889 31.7505 292.558 30.5918 295.109 28.3915C297.678 26.1752 298.996 23.0016 298.996 19.2321H296.996ZM284.357 29.7505C280.145 29.7505 276.985 28.674 274.893 26.876C272.82 25.0942 271.685 22.5085 271.685 19.2321H269.685C269.685 23.0037 271.012 26.1772 273.589 28.3926C276.148 30.5918 279.824 31.7505 284.357 31.7505V29.7505ZM271.685 19.2321V7.15892H269.685V19.2321H271.685ZM270.685 8.15892H278.646V6.15892H270.685V8.15892ZM277.646 7.15892V18.6121H279.646V7.15892H277.646ZM277.646 18.6121C277.646 20.4701 278.129 22.1998 279.278 23.4747C280.443 24.7672 282.168 25.4529 284.357 25.4529V23.4529C282.597 23.4529 281.466 22.9149 280.764 22.1354C280.045 21.3384 279.646 20.1476 279.646 18.6121H277.646ZM284.357 25.4529C286.531 25.4529 288.248 24.7656 289.408 23.4731C290.552 22.1987 291.034 20.4701 291.034 18.6121H289.034C289.034 20.1476 288.636 21.3394 287.92 22.1371C287.22 22.9165 286.098 23.4529 284.357 23.4529V25.4529ZM291.034 18.6121V7.15892H289.034V18.6121H291.034ZM311.082 24.2571H310.082V25.2571H311.082V24.2571ZM328.376 24.2571H329.376V23.2571H328.376V24.2571ZM328.376 30V31H329.376V30H328.376ZM303.283 30H302.283V31H303.283V30ZM303.283 7.15892V6.15892H302.283V7.15892H303.283ZM328.017 7.15892H329.017V6.15892H328.017V7.15892ZM328.017 12.9018V13.9018H329.017V12.9018H328.017ZM311.082 12.9018V11.9018H310.082V12.9018H311.082ZM311.082 15.8059H310.082V16.8059H311.082V15.8059ZM324.884 15.8059H325.884V14.8059H324.884V15.8059ZM324.884 21.092V22.092H325.884V21.092H324.884ZM311.082 21.092V20.092H310.082V21.092H311.082ZM311.082 25.2571H328.376V23.2571H311.082V25.2571ZM327.376 24.2571V30H329.376V24.2571H327.376ZM328.376 29H303.283V31H328.376V29ZM304.283 30V7.15892H302.283V30H304.283ZM303.283 8.15892H328.017V6.15892H303.283V8.15892ZM327.017 7.15892V12.9018H329.017V7.15892H327.017ZM328.017 11.9018H311.082V13.9018H328.017V11.9018ZM310.082 12.9018V15.8059H312.082V12.9018H310.082ZM311.082 16.8059H324.884V14.8059H311.082V16.8059ZM323.884 15.8059V21.092H325.884V15.8059H323.884ZM324.884 20.092H311.082V22.092H324.884V20.092ZM310.082 21.092V24.2571H312.082V21.092H310.082Z" fill="currentColor" mask="url(#path-1-inside-1_366_1125)" data-v-4789d3f8=""/><path fill-rule="evenodd" clip-rule="evenodd" d="M474 17.229C474 18.0436 473.905 19.0307 473.763 19.549C473.147 19.4748 472.531 19.4501 471.796 19.4501C471.157 19.4501 470.517 19.4996 469.877 19.5981V30.161H467.271V17.8214C468.384 17.4265 470.256 17.1305 471.725 17.1305C472.531 17.1305 473.431 17.1552 474 17.229ZM456.513 22.6091H462.389C462.389 20.5855 461.347 19.4008 459.546 19.4008C457.698 19.4008 456.726 20.5114 456.513 22.6091ZM464.877 24.8796H456.56C456.892 27.0761 458.124 28.1372 460.446 28.1372C461.868 28.1372 463.313 27.8164 464.616 27.1995C464.522 27.9152 464.38 28.8529 464.214 29.6671C463.029 30.2349 461.773 30.4569 460.375 30.4569C456.015 30.4569 453.907 27.9397 453.907 23.7198C453.907 20.0426 455.542 17.1305 459.688 17.1305C463.408 17.1305 465.019 19.6721 465.019 22.7819C465.019 23.5471 464.972 24.164 464.877 24.8796ZM449.191 27.2979V19.697C448.504 19.549 447.793 19.4501 447.106 19.4501C444.523 19.4501 443.291 21.1286 443.291 23.942C443.291 26.459 444.263 28.2361 446.585 28.2361C447.627 28.2361 448.48 27.8657 449.191 27.2979ZM451.773 12.8855V30.161H449.38L449.238 28.5815C448.575 29.7415 447.556 30.4569 445.85 30.4569C442.722 30.4569 440.637 28.0878 440.637 23.942C440.637 19.5982 442.864 17.1305 447.248 17.1305C447.935 17.1305 448.575 17.2045 449.191 17.3279V13.2557C449.996 12.9597 450.92 12.8855 451.773 12.8855ZM438.551 21.8688V30.161H435.945V22.3377C435.945 20.3881 435.329 19.4501 432.723 19.4501C432.107 19.4501 431.372 19.5243 430.661 19.6477V30.161H428.055V17.8214C429.713 17.4019 431.538 17.1305 432.794 17.1305C437.153 17.1305 438.551 18.8825 438.551 21.8688ZM422.604 27.3475V19.5981C422.06 19.4996 421.467 19.4501 420.733 19.4501C418.031 19.4501 416.776 21.1779 416.776 23.942C416.776 26.459 417.747 28.2361 420.069 28.2361C421.088 28.2361 421.917 27.8906 422.604 27.3475ZM425.211 17.8214V30.161H422.818L422.676 28.6803C422.012 29.7662 420.993 30.4569 419.335 30.4569C416.207 30.4569 414.122 28.0878 414.122 23.942C414.122 19.5982 416.349 17.1305 420.733 17.1305C422.439 17.1305 423.837 17.3278 425.211 17.8214ZM411.231 28.1372C411.989 28.1372 412.7 27.9891 413.268 27.7672C413.197 28.5073 413.102 29.3466 412.96 30.062C412.249 30.3582 411.491 30.4569 410.757 30.4569C408.221 30.4569 406.61 29.2477 406.61 26.237V13.2804C407.416 13.009 408.411 12.8855 409.217 12.8855V17.5499H413.339C413.292 18.389 413.221 19.1541 413.102 19.8697H409.217V25.9163C409.217 27.5203 409.975 28.1372 411.231 28.1372ZM404.003 21.8688V30.161H401.397V22.3377C401.397 20.3881 400.781 19.4501 398.174 19.4501C397.558 19.4501 396.824 19.5243 396.113 19.6477V30.161H393.507V17.8214C395.165 17.4019 396.99 17.1305 398.245 17.1305C402.605 17.1305 404.003 18.8825 404.003 21.8688ZM388.056 27.3475V19.5981C387.511 19.4996 386.919 19.4501 386.184 19.4501C383.483 19.4501 382.227 21.1779 382.227 23.942C382.227 26.459 383.199 28.2361 385.521 28.2361C386.54 28.2361 387.369 27.8906 388.056 27.3475ZM390.663 17.8214V30.161H388.269L388.127 28.6803C387.464 29.7662 386.445 30.4569 384.786 30.4569C381.659 30.4569 379.574 28.0878 379.574 23.942C379.574 19.5982 381.801 17.1305 386.184 17.1305C387.89 17.1305 389.288 17.3278 390.663 17.8214ZM366.991 29.618C367.039 28.6062 367.181 27.9152 367.441 27.1254C368.768 27.7672 370.474 28.0878 371.778 28.0878C373.981 28.0878 375.213 27.3475 375.213 25.8914C375.213 24.46 374.313 23.7936 372.086 22.7819L370.877 22.2391C368.65 21.2271 367.133 19.919 367.133 17.3032C367.133 14.4899 369.005 12.6881 372.844 12.6881C374.384 12.6881 375.829 12.9104 377.18 13.4039C377.109 14.3911 376.943 15.1562 376.706 15.8718C375.426 15.3782 373.91 15.1562 372.82 15.1562C370.759 15.1562 369.811 15.9953 369.811 17.3032C369.811 18.5865 370.735 19.3268 372.394 20.0674L373.673 20.6348C376.682 21.9675 377.938 23.3742 377.938 25.7681C377.938 28.6062 375.877 30.5558 371.849 30.5558C369.906 30.5558 368.318 30.2598 366.991 29.618ZM354.354 14.8486L350.404 7.72288C350.103 7.17944 349.895 6.59715 349.779 6L349.614 6.29776C348.637 8.06157 348.637 10.2343 349.614 11.9981L352.774 17.6989C353.752 19.4625 353.752 21.6356 352.774 23.3994L352.609 23.6972C352.494 23.1 352.286 22.5178 351.984 21.9743L347.244 13.4233C346.943 12.8799 346.735 12.2976 346.619 11.7005L346.454 11.9983C345.48 13.7561 345.477 15.9203 346.445 17.6809L349.614 23.3994C350.592 25.1631 350.592 27.3361 349.614 29.0999L349.449 29.3977C349.334 28.8005 349.126 28.2183 348.824 27.675L344.875 20.5491C344.345 19.5934 344.103 18.5176 344.147 17.4517C339.919 18.6025 337 21.0456 337 23.8744C337 27.8097 342.648 31 349.614 31C356.581 31 362.229 27.8097 362.229 23.8744C362.229 21.0454 359.31 18.6016 355.082 17.451C355.044 16.5501 354.802 15.6564 354.354 14.8486Z" fill="#FAB60A" data-v-4789d3f8=""/></svg>