<svg width="20" height="17" viewBox="0 0 18 18" fill="none" xmlns="http://www.w3.org/2000/svg"><path d="M8.91019 1.9123C11.2129 1.9123 11.4855 1.9224 12.3911 1.9628C13.2327 1.99983 13.6872 2.14122 13.9902 2.25905C14.3908 2.41391 14.6803 2.60243 14.98 2.90205C15.2829 3.20503 15.4681 3.49118 15.623 3.89179C15.7408 4.19477 15.8822 4.65262 15.9192 5.49087C15.9596 6.39982 15.9697 6.6725 15.9697 8.97181C15.9697 11.2745 15.9596 11.5472 15.9192 12.4528C15.8822 13.2944 15.7408 13.7488 15.623 14.0518C15.4681 14.4524 15.2796 14.742 14.98 15.0416C14.677 15.3446 14.3908 15.5297 13.9902 15.6846C13.6872 15.8024 13.2294 15.9438 12.3911 15.9808C11.4822 16.0212 11.2095 16.0313 8.91019 16.0313C6.60751 16.0313 6.33483 16.0212 5.42924 15.9808C4.58762 15.9438 4.13315 15.8024 3.83016 15.6846C3.42955 15.5297 3.14004 15.3412 2.84042 15.0416C2.53744 14.7386 2.35228 14.4524 2.19742 14.0518C2.07959 13.7488 1.9382 13.291 1.90117 12.4528C1.86077 11.5438 1.85067 11.2711 1.85067 8.97181C1.85067 6.66914 1.86077 6.39645 1.90117 5.49087C1.9382 4.64925 2.07959 4.19477 2.19742 3.89179C2.35228 3.49118 2.5408 3.20166 2.84042 2.90205C3.1434 2.59906 3.42955 2.41391 3.83016 2.25905C4.13315 2.14122 4.59099 1.99983 5.42924 1.9628C6.33483 1.9224 6.60751 1.9123 8.91019 1.9123ZM8.91019 0.360352C6.57048 0.360352 6.2776 0.370451 5.35855 0.410849C4.44286 0.451247 3.81333 0.599372 3.26796 0.81146C2.69903 1.03365 2.21762 1.32653 1.73958 1.80794C1.25817 2.28598 0.965289 2.76739 0.743101 3.33296C0.531012 3.88169 0.382887 4.50786 0.342489 5.42354C0.302092 6.34596 0.291992 6.63884 0.291992 8.97854C0.291992 11.3182 0.302092 11.6111 0.342489 12.5302C0.382887 13.4459 0.531012 14.0754 0.743101 14.6208C0.965289 15.1897 1.25817 15.6711 1.73958 16.1492C2.21762 16.6272 2.69903 16.9234 3.2646 17.1423C3.81333 17.3544 4.4395 17.5025 5.35518 17.5429C6.27423 17.5833 6.56711 17.5934 8.90682 17.5934C11.2465 17.5934 11.5394 17.5833 12.4585 17.5429C13.3741 17.5025 14.0037 17.3544 14.549 17.1423C15.1146 16.9234 15.596 16.6272 16.0741 16.1492C16.5521 15.6711 16.8483 15.1897 17.0672 14.6241C17.2793 14.0754 17.4274 13.4492 17.4678 12.5335C17.5082 11.6145 17.5183 11.3216 17.5183 8.98191C17.5183 6.64221 17.5082 6.34932 17.4678 5.43027C17.4274 4.51459 17.2793 3.88506 17.0672 3.33969C16.8551 2.76739 16.5622 2.28598 16.0808 1.80794C15.6028 1.3299 15.1213 1.03365 14.5558 0.814827C14.007 0.602738 13.3809 0.454613 12.4652 0.414215C11.5428 0.370451 11.2499 0.360352 8.91019 0.360352Z" fill="currentColor"/><path d="M8.91018 4.55162C6.46612 4.55162 4.48326 6.53448 4.48326 8.97854C4.48326 11.4226 6.46612 13.4055 8.91018 13.4055C11.3543 13.4055 13.3371 11.4226 13.3371 8.97854C13.3371 6.53448 11.3543 4.55162 8.91018 4.55162ZM8.91018 11.8502C7.32457 11.8502 6.03858 10.5642 6.03858 8.97854C6.03858 7.39293 7.32457 6.10694 8.91018 6.10694C10.4958 6.10694 11.7818 7.39293 11.7818 8.97854C11.7818 10.5642 10.4958 11.8502 8.91018 11.8502Z" fill="currentColor"/><path d="M14.5457 4.37657C14.5457 4.94888 14.0811 5.41009 13.5122 5.41009C12.9399 5.41009 12.4787 4.94551 12.4787 4.37657C12.4787 3.80427 12.9432 3.34306 13.5122 3.34306C14.0811 3.34306 14.5457 3.80764 14.5457 4.37657Z" fill="currentColor"/></svg>