<svg xmlns="http://www.w3.org/2000/svg" width="13" height="13" viewBox="0 0 13 13" fill="none" class="inline-block rotate-180"><path d="M6.50875 9.07598C6.31781 9.07594 6.1347 9.00231 5.99971 8.8713L3.11971 6.07702C3.05094 6.01258 2.99609 5.93549 2.95836 5.85027C2.92062 5.76504 2.90076 5.67337 2.89993 5.58062C2.8991 5.48786 2.91732 5.39587 2.95352 5.31002C2.98972 5.22417 3.04318 5.14617 3.11079 5.08058C3.17839 5.01499 3.25878 4.96312 3.34726 4.928C3.43575 4.89287 3.53056 4.8752 3.62616 4.876C3.72176 4.87681 3.81624 4.89608 3.90408 4.93269C3.99192 4.9693 4.07137 5.02252 4.13779 5.08924L6.50875 7.38963L8.87971 5.08924C9.0155 4.96199 9.19738 4.89158 9.38616 4.89317C9.57494 4.89476 9.75553 4.96823 9.88902 5.09775C10.0225 5.22727 10.0982 5.40248 10.0999 5.58564C10.1015 5.76881 10.0289 5.94527 9.89779 6.07702L7.01779 8.8713C6.88279 9.00231 6.69969 9.07594 6.50875 9.07598Z" fill="#686868"/></svg>